<svg width="16" height="16" viewBox="0 0 16 16" fill="none" xmlns="http://www.w3.org/2000/svg">
<path d="M7.99938 0.03125C3.51077 0.03125 0.03125 3.31922 0.03125 7.76033C0.03125 10.0835 0.983282 12.0905 2.53356 13.4773C2.66392 13.5936 2.74233 13.7571 2.74774 13.9315L2.79109 15.3492C2.8048 15.8011 3.27205 16.0953 3.68543 15.9127L5.26695 15.2144C5.40113 15.1554 5.55125 15.1442 5.69245 15.1834C6.41946 15.3833 7.19268 15.4897 7.99906 15.4897C12.4877 15.4897 15.9672 12.2018 15.9672 7.76065C15.9672 3.31954 12.488 0.03125 7.99938 0.03125ZM12.9371 5.69786L10.1629 9.98535C10.022 10.203 9.73165 10.2652 9.51396 10.1243L6.94408 8.46153C6.84464 8.39715 6.71587 8.39906 6.61834 8.46631L3.72177 10.4641C3.29914 10.7554 2.78249 10.254 3.06137 9.82312L5.83587 5.53563C5.97675 5.31794 6.26711 5.25579 6.48448 5.39667L9.055 7.05978C9.15444 7.12416 9.2832 7.12225 9.38073 7.055L12.2767 5.05754C12.6993 4.76591 13.216 5.26758 12.9371 5.6985V5.69786Z" fill="white" fill-opacity="0.55"/>
</svg>
